<svg xmlns="http://www.w3.org/2000/svg" viewBox="0 0 219.11 87.54"><defs><style>.cls-1,.cls-14{fill:#ff4f33;}.cls-2{fill:#f2a286;}.cls-3{fill:#ffcda7;}.cls-4{fill:#d26159;}.cls-5{fill:#00030f;}.cls-6{fill:#ffaa47;}.cls-7{fill:#fff6e1;}.cls-8{fill:#70aca0;}.cls-11,.cls-9{fill:#31756c;}.cls-10{fill:#d9ebff;}.cls-11{font-size:36px;font-family:PFEncoreSansPro-Light, PF Encore Sans Pro;font-weight:300;}.cls-12{letter-spacing:-0.05em;}.cls-13{letter-spacing:0em;}.cls-14{font-family:PFEncoreSansPro-Bold, PF Encore Sans Pro;font-weight:700;}</style></defs><title>natural-logo</title><g id="Layer_1" data-name="Layer 1"><path class="cls-1" d="M16,40.26l2.28-3.64a11.8,11.8,0,0,0-1.51-1.25C16,36.84,15,38.46,14,40l-.64,1a2.06,2.06,0,0,0,1.3.12A2,2,0,0,0,16,40.26Z" transform="translate(-5.07 -3.88)"/><path class="cls-2" d="M51.41,76.52a64.4,64.4,0,0,0,2.43-6.31c1.08-3.31,2.33-8,2.1-11.85-.42-6.8,1.5-16.78,1.84-18.45L42.6,32.15a.27.27,0,0,1-.17-.24c-.87-6.76-3.27-24.48-4-26.26a5,5,0,0,0-4.36-1,3.22,3.22,0,0,0-2.14,1.9c-.56,6.21,1.15,18.66,1.17,18.78h0c.7,6.33-.62,7.82-1.46,8.16a1.88,1.88,0,0,1-2.14-.93,73.89,73.89,0,0,1-4.16-7.48v0c-2-4.77-5.31-12.49-6-13.32a4.18,4.18,0,0,0-4.12.32,3,3,0,0,0-1.4,2.6v0c.12,3.37,3.55,14.4,4.6,17.7a3.26,3.26,0,0,1-.16,2.38,1.63,1.63,0,0,1-.43.6,10.7,10.7,0,0,1,1.05,1l0,0a8.53,8.53,0,0,1,2.43,5,11.09,11.09,0,0,1-.51,4.51,19.39,19.39,0,0,1-1.16,2.78,9.06,9.06,0,0,1,2,2.33A16.16,16.16,0,0,1,23.9,59.7a.32.32,0,0,1-.32.32l-.13,0a.34.34,0,0,1-.19-.3,15.56,15.56,0,0,0-2.12-8.32,8.7,8.7,0,0,0-1.81-2.13L19,49.8a23.27,23.27,0,0,1-2.8,3.8.32.32,0,0,1-.45,0,.33.33,0,0,1,0-.45,24.25,24.25,0,0,0,2.72-3.71c1.19-2,2.54-5,2.2-8a7.85,7.85,0,0,0-2-4.36L16.5,40.6a2.66,2.66,0,0,1-1.71,1.21,2.69,2.69,0,0,1-1.66-.14L13,41.61c-1.93,3.17-3.59,6.22-3.06,7.87a53.52,53.52,0,0,1,2,12.48c0,1.37.95,3,2.76,4.61a24.88,24.88,0,0,0,6.14,4c4.57,2.11,5.51,10,4.92,16.21-.19,2,.4,3.39,1.68,3.86a4.08,4.08,0,0,0,2.95-.25A7,7,0,0,0,33.24,88,4.22,4.22,0,0,1,36,86c2.08-.32,4.23,1.32,6.51,3.06l.65.5a3.87,3.87,0,0,0,4.39.23,5.82,5.82,0,0,0,2.64-5.86C49.56,79,50.44,77.55,51.41,76.52Z" transform="translate(-5.07 -3.88)"/><path class="cls-3" d="M18.48,32.74a8.78,8.78,0,0,0,.5-2.61s-.25-.78-1.09-3-1.77-5.2-1.07-5.56.81-.74.13-.55-.86,0-.22-.35,1.61-.68.88-.79-1.49.73-2.06-.94-.92-4.49.32-5.82c.73-.79.71-1.3.57-1.58a3.9,3.9,0,0,0-1.24.58,3,3,0,0,0-1.4,2.6v0c.12,3.37,3.55,14.4,4.6,17.7C18.43,32.52,18.46,32.63,18.48,32.74Z" transform="translate(-5.07 -3.88)"/><path class="cls-4" d="M50.2,83.92c-.64-4.92.24-6.37,1.21-7.4a64.4,64.4,0,0,0,2.43-6.31,49.47,49.47,0,0,0,1.73-6.78,14.48,14.48,0,0,0-5.3-4c-4.51-1.66-20.2-2.37-20.2-2.37s-4,1-.91,4.33,12.54,3.89,15.47,9.43-4,6.25-7.64,3.33-3.25,1.38-8.54-.37c-4.62-1.53-6-3.76-10.85-5a27.54,27.54,0,0,0,3.22,1.75c4.57,2.11,5.51,10,4.92,16.21-.19,2,.4,3.39,1.68,3.86a4.08,4.08,0,0,0,2.95-.25A7,7,0,0,0,33.24,88c.12-.17.24-.32.36-.46,1.75-6.56,3.79-12.4,3.62-8.45-.23,5.23,2.61-2.79,2.72,0s8.22-4,8.21,4.24a14.34,14.34,0,0,1-1.55,7,4.2,4.2,0,0,0,1-.41A5.82,5.82,0,0,0,50.2,83.92Z" transform="translate(-5.07 -3.88)"/><path class="cls-3" d="M21.15,68.82c-1.4-.93-2.47-.68-4.95-2.09s.77-3.33,1.69-6.47-1.64-3.91-2.67-2.94-1.52,2.79-2.1,1.2a22.58,22.58,0,0,1-1.06-4.79c-.3-2-1.26-5.19-.78-6.34s1.71-4.13,2.44-4.26a3.72,3.72,0,0,0,2.8-1.62c.89-1.19,1.39-2.61,1.22-2.89l-1.24,2a2.66,2.66,0,0,1-1.71,1.21,2.69,2.69,0,0,1-1.66-.14L13,41.61c-1.93,3.17-3.59,6.22-3.06,7.87a53.52,53.52,0,0,1,2,12.48c0,1.37.95,3,2.76,4.61a23.56,23.56,0,0,0,5.18,3.49C21.5,70.35,22.15,69.48,21.15,68.82Z" transform="translate(-5.07 -3.88)"/><path class="cls-3" d="M31.88,6.57c-.56,6.21,1.15,18.66,1.17,18.78h0c.61.28,1.51.7,1.11-1.07s-.95-8.24-.64-8.45,2.83-.15,2.47-.56-1.31,0-2.29-.18-.86-1.4.13-1.62,2.05-.75.83-.61-2,0-2-.76-.24-4,.28-5.29c.43-1.11,2.36-2,3-2.24A4.41,4.41,0,0,0,34,4.67,3.22,3.22,0,0,0,31.88,6.57Z" transform="translate(-5.07 -3.88)"/><path class="cls-4" d="M22.76,31.53a6.48,6.48,0,0,0,2.53-1.73,6.93,6.93,0,0,0,1.14-2.44c-.63-1.22-1.1-2.16-1.14-2.25v0c-2-4.77-5.31-12.49-6-13.32a4.8,4.8,0,0,0-1.43-.37c-.62.4-1.08,1.79,0,6.1A94.19,94.19,0,0,0,22.76,31.53Z" transform="translate(-5.07 -3.88)"/><path class="cls-4" d="M42.43,31.91c-.87-6.76-3.27-24.48-4-26.26L38,5.4a2.92,2.92,0,0,0-2.37,2.86c-.16,2.65,3.42,22.1,3.82,23.29.32.95,2.06,2.31,3,.53A.28.28,0,0,1,42.43,31.91Z" transform="translate(-5.07 -3.88)"/><path class="cls-5" d="M51.91,76.92a.16.16,0,0,0,.06-.08,68.44,68.44,0,0,0,2.47-6.42c1.6-4.9,2.32-9,2.13-12.1-.44-7.32,1.86-18.4,1.88-18.51a.32.32,0,0,0-.17-.35L43,31.66c-.14-1-.87-6.65-1.68-12.39-1.83-12.83-2.29-13.69-2.44-14l-.09-.1a5.71,5.71,0,0,0-5-1.13,3.82,3.82,0,0,0-2.57,2.32.29.29,0,0,0,0,.09c-.58,6.22,1.13,18.67,1.17,19,.55,5-.19,7.15-1.07,7.49-.42.17-.94-.1-1.39-.71a77.16,77.16,0,0,1-4.1-7.37c-.08-.2-1.36-3.28-2.72-6.42-2.86-6.58-3.26-7-3.41-7.13a.31.31,0,0,0-.09-.07,4.79,4.79,0,0,0-4.81.35,3.66,3.66,0,0,0-1.66,3.17c.12,3.46,3.57,14.54,4.62,17.86a2.65,2.65,0,0,1-.12,1.92.94.94,0,0,1-.27.38.3.3,0,0,0-.21,0l-.4-.27a.3.3,0,0,0-.26,0,.29.29,0,0,0-.2.16c-.78,1.53-1.85,3.26-2.88,4.93-2.48,4-4.82,7.78-4.11,10A52.52,52.52,0,0,1,11.29,62c0,1.55,1,3.3,3,5.08a25.71,25.71,0,0,0,6.3,4.07c1.91.88,3.32,3.06,4.08,6.3a30.41,30.41,0,0,1,.48,9.27,5.48,5.48,0,0,0,.41,3,3,3,0,0,0,1.55,1.47l.13.06c2,.74,4.92-.52,6.56-2.88a3.66,3.66,0,0,1,2.35-1.7c1.81-.28,3.86,1.28,6,2.94l.65.5a4.49,4.49,0,0,0,5.09.27,6,6,0,0,0,2.34-2.58,6.84,6.84,0,0,0,.61-3.91C50.17,78.74,51.22,77.65,51.91,76.92ZM14,40c1-1.57,2-3.19,2.74-4.66a11.8,11.8,0,0,1,1.51,1.25L16,40.26a2,2,0,0,1-1.31.93,2.06,2.06,0,0,1-1.3-.12ZM47.56,89.78a3.87,3.87,0,0,1-4.39-.23l-.65-.5C40.24,87.31,38.09,85.67,36,86a4.22,4.22,0,0,0-2.77,2,7,7,0,0,1-2.87,2.39,4.08,4.08,0,0,1-2.95.25c-1.28-.47-1.87-1.84-1.68-3.86.59-6.16-.35-14.1-4.92-16.21a24.88,24.88,0,0,1-6.14-4c-1.81-1.65-2.76-3.24-2.76-4.61a53.52,53.52,0,0,0-2-12.48c-.53-1.65,1.13-4.7,3.06-7.87l.12.06a2.69,2.69,0,0,0,1.66.14A2.66,2.66,0,0,0,16.5,40.6l2.19-3.5a7.85,7.85,0,0,1,2,4.36c.34,3-1,6-2.2,8a24.25,24.25,0,0,1-2.72,3.71.33.33,0,0,0,0,.45.32.32,0,0,0,.45,0A23.27,23.27,0,0,0,19,49.8l.32-.55a8.7,8.7,0,0,1,1.81,2.13,15.56,15.56,0,0,1,2.12,8.32.34.34,0,0,0,.19.3l.13,0a.32.32,0,0,0,.32-.32A16.16,16.16,0,0,0,21.66,51a9.06,9.06,0,0,0-2-2.33A19.39,19.39,0,0,0,20.8,45.9a11.09,11.09,0,0,0,.51-4.51,8.53,8.53,0,0,0-2.43-5l0,0a10.7,10.7,0,0,0-1.05-1,1.63,1.63,0,0,0,.43-.6,3.26,3.26,0,0,0,.16-2.38c-1-3.3-4.48-14.33-4.6-17.7v0a3,3,0,0,1,1.4-2.6,4.18,4.18,0,0,1,4.12-.32c.65.83,4,8.55,6,13.32v0a73.89,73.89,0,0,0,4.16,7.48,1.88,1.88,0,0,0,2.14.93c.84-.34,2.16-1.83,1.46-8.16h0c0-.12-1.73-12.57-1.17-18.78A3.22,3.22,0,0,1,34,4.67a5,5,0,0,1,4.36,1c.78,1.78,3.18,19.5,4,26.26a.27.27,0,0,0,.17.24l15.18,7.76c-.34,1.67-2.26,11.65-1.84,18.45.23,3.8-1,8.54-2.1,11.85a64.4,64.4,0,0,1-2.43,6.31c-1,1-1.85,2.48-1.21,7.4A5.82,5.82,0,0,1,47.56,89.78Z" transform="translate(-5.07 -3.88)"/><path class="cls-6" d="M66.09,44.2A8,8,0,1,0,69.9,55.59h0l.09-.15v0l.09-.16h0a1.3,1.3,0,0,0,.08-.17l0,0,.06-.13,0,0c0-.05,0-.11.07-.17h0a1.22,1.22,0,0,0,.07-.17l0-.08a1,1,0,0,0,0-.1l0-.1,0-.07,0-.12V54s0-.09.05-.14h0A8,8,0,0,0,71,51.5v-.15A8,8,0,0,0,66.09,44.2Z" transform="translate(-5.07 -3.88)"/><circle class="cls-1" cx="59.95" cy="43.68" r="2.5"/><circle class="cls-1" cx="56.28" cy="52.39" r="2.5"/><circle class="cls-1" cx="53.76" cy="46.19" r="2.5"/><circle class="cls-1" cx="62.47" cy="49.87" r="2.5"/><circle class="cls-7" cx="49.49" cy="58.37" r="5.5" transform="translate(-23.2 90.33) rotate(-77.63)"/><circle class="cls-7" cx="24.56" cy="46.12" r="5.5"/><path class="cls-8" d="M59.63,59.52A8.63,8.63,0,1,1,70.77,47.86a7.19,7.19,0,0,0-.45-4.1,3.66,3.66,0,0,0-.82-1.14L60.94,39h0l-.06,0-12.4-4.81-.82-.35L35.57,28.31l-8.63-3.63a3.32,3.32,0,0,0-1.38.19,7.29,7.29,0,0,0-3.26,2.55,8.63,8.63,0,1,1-5.84,8.45c-2.77,4.18-8,12.35-9.49,16A14.6,14.6,0,0,0,5.75,58.5,4.73,4.73,0,0,0,8,62.28a6.3,6.3,0,0,0,5,.39,11.36,11.36,0,0,0,5.71-4.1c1.6-2,4.27-2.81,7.92-2.34a38.24,38.24,0,0,1,10.67,3.46,38.59,38.59,0,0,1,9.92,5.22c2.89,2.29,4.19,4.75,3.85,7.31a11.41,11.41,0,0,0,1.05,7,6.3,6.3,0,0,0,3.76,3.29,4.7,4.7,0,0,0,4.25-1.06A14.48,14.48,0,0,0,64,75.92c1.62-3.59,3.79-13.07,4.85-18A8.62,8.62,0,0,1,59.63,59.52ZM52,41.73l2.21.93a1.61,1.61,0,1,1-1.25,3l-2.21-.93a1.61,1.61,0,1,1,1.25-3Zm-14.47-6.1,2.22.93a1.61,1.61,0,0,1-1.25,3l-2.21-.93a1.6,1.6,0,1,1,1.24-3Zm-10.31,20a6.14,6.14,0,1,1,8-3.28A6.15,6.15,0,0,1,27.25,55.66Zm15.27-8.45h0a2.76,2.76,0,0,1,2.14-5.08h0a2.75,2.75,0,1,1-2.14,5.07ZM47.1,64a6.14,6.14,0,1,1,8-3.27A6.14,6.14,0,0,1,47.1,64Z" transform="translate(-5.07 -3.88)"/><circle class="cls-5" cx="59.75" cy="43.34" r="2.5"/><circle class="cls-5" cx="56.08" cy="52.05" r="2.5"/><circle class="cls-5" cx="53.56" cy="45.85" r="2.5"/><circle class="cls-5" cx="62.27" cy="49.53" r="2.5"/><circle class="cls-5" cx="44.42" cy="54.5" r="3.81"/><circle class="cls-1" cx="44.42" cy="54.5" r="2.66"/><path class="cls-7" d="M47.76,58.29a2.07,2.07,0,0,1,3.79,0,2.07,2.07,0,1,0-3.95,1A2,2,0,0,1,47.76,58.29Z" transform="translate(-5.07 -3.88)"/><path class="cls-5" d="M33.78,50l-1.19-.5a.91.91,0,0,1-.48-1.19l.5-1.19a.91.91,0,0,0-.49-1.19l-1.3-.55a.91.91,0,0,0-1.2.48L29.12,47a.9.9,0,0,1-1.19.48L26.74,47a.92.92,0,0,0-1.19.49L25,48.81a.92.92,0,0,0,.49,1.2l1.18.5a.91.91,0,0,1,.49,1.19l-.5,1.19a.91.91,0,0,0,.48,1.19l1.31.55a.91.91,0,0,0,1.19-.49l.5-1.18a.91.91,0,0,1,1.19-.49l1.19.5a.9.9,0,0,0,1.19-.48l.55-1.31A.91.91,0,0,0,33.78,50Z" transform="translate(-5.07 -3.88)"/><path class="cls-6" d="M36.56,38l2.22.94a1,1,0,0,0,.75-1.79l-2.21-.93A1,1,0,0,0,36.56,38Z" transform="translate(-5.07 -3.88)"/><path class="cls-6" d="M17.63,32.7s0,.09-.05.13l0,0-.06.18h0l-.06.17v0a1.21,1.21,0,0,1-.05.18h0a8,8,0,1,0,2.28-3.73l0,0-.09.08a8.42,8.42,0,0,0-1.44,1.86h0l-.07.13,0,.05L18,32l0,.07a.41.41,0,0,1-.05.09l0,.1,0,.07a1.42,1.42,0,0,0-.08.18.87.87,0,0,0-.07.17Zm9.42-1.77a5,5,0,1,1-6.61,2.69A5.06,5.06,0,0,1,27.05,30.93Z" transform="translate(-5.07 -3.88)"/><path class="cls-6" d="M51,44.1l2.21.94a1,1,0,0,0,1.27-.52A1,1,0,0,0,54,43.25l-2.21-.93A1,1,0,1,0,51,44.1Z" transform="translate(-5.07 -3.88)"/><path class="cls-7" d="M36.17,37a1,1,0,0,1,1.27-.52l2.21.94a1,1,0,0,1,.44.37,1,1,0,0,0-.56-.65l-2.21-.93a1,1,0,0,0-1.19,1.41A.89.89,0,0,1,36.17,37Z" transform="translate(-5.07 -3.88)"/><path class="cls-7" d="M50.63,43.11a1,1,0,0,1,1.27-.52l2.22.94a1,1,0,0,1,.43.37,1,1,0,0,0-.56-.65l-2.21-.93a1,1,0,0,0-1.27.51,1,1,0,0,0,.08.9A.89.89,0,0,1,50.63,43.11Z" transform="translate(-5.07 -3.88)"/><circle class="cls-5" cx="25.09" cy="35.58" r="4.41" transform="translate(-22.22 42.28) rotate(-68.86)"/><circle class="cls-1" cx="25.09" cy="35.58" r="3.45" transform="translate(-22.79 39.67) rotate(-65.35)"/><path class="cls-7" d="M22.62,35.37a2.91,2.91,0,0,1,3.82-1.55A2.88,2.88,0,0,1,28,35.31a2.91,2.91,0,0,0-5.59-1,2.88,2.88,0,0,0,0,2.32A2.88,2.88,0,0,1,22.62,35.37Z" transform="translate(-5.07 -3.88)"/><path class="cls-1" d="M69.08,41.65l.2-.47a.22.22,0,0,0-.12-.29l-6.5-2.74a.61.61,0,0,0-.81.33l-.05.12,0,.07,7.29,3.08Z" transform="translate(-5.07 -3.88)"/><path class="cls-1" d="M35.2,27.38l0-.12a.62.62,0,0,0-.33-.81l-6.5-2.74a.22.22,0,0,0-.29.11l-.2.47a.26.26,0,0,1-.05.09l7.29,3.08Z" transform="translate(-5.07 -3.88)"/><path class="cls-1" d="M44.41,42.72h0a2.12,2.12,0,0,0-1.64,3.91h0a2.12,2.12,0,1,0,1.65-3.91Z" transform="translate(-5.07 -3.88)"/><path class="cls-5" d="M36.32,38.59l2.21.93a1.61,1.61,0,0,0,1.25-3l-2.22-.93a1.6,1.6,0,1,0-1.24,3Zm1-2.37,2.21.93a1,1,0,0,1-.75,1.79L36.56,38a1,1,0,0,1,.76-1.78Z" transform="translate(-5.07 -3.88)"/><path class="cls-5" d="M23.13,40.23a5,5,0,1,0-2.69-6.61A5.05,5.05,0,0,0,23.13,40.23Zm3.67-8.71A4.41,4.41,0,1,1,21,33.87,4.42,4.42,0,0,1,26.8,31.52Z" transform="translate(-5.07 -3.88)"/><path class="cls-5" d="M44.66,42.14h0a2.76,2.76,0,0,0-2.14,5.08h0a2.75,2.75,0,1,0,2.14-5.07Zm-1.9,4.49h0a2.12,2.12,0,0,1,1.64-3.91h0a2.12,2.12,0,1,1-1.65,3.91Z" transform="translate(-5.07 -3.88)"/><path class="cls-5" d="M51.87,52.71a6.14,6.14,0,1,0,3.27,8A6.15,6.15,0,0,0,51.87,52.71ZM47.35,63.44a5.5,5.5,0,1,1,7.21-2.93A5.5,5.5,0,0,1,47.35,63.44Z" transform="translate(-5.07 -3.88)"/><path class="cls-5" d="M50.78,44.69l2.21.93a1.61,1.61,0,1,0,1.25-3L52,41.73a1.61,1.61,0,1,0-1.25,3Zm1-2.37,2.21.93a1,1,0,0,1,.52,1.27,1,1,0,0,1-1.27.52L51,44.1a1,1,0,1,1,.75-1.78Z" transform="translate(-5.07 -3.88)"/><path class="cls-5" d="M32,44.34a6.14,6.14,0,1,0,3.27,8A6.14,6.14,0,0,0,32,44.34ZM27.49,55.07a5.5,5.5,0,1,1,7.21-2.93A5.51,5.51,0,0,1,27.49,55.07Z" transform="translate(-5.07 -3.88)"/><path class="cls-7" d="M64.72,48.51l-.14,0a.64.64,0,0,1-.18-.06.53.53,0,0,1-.24-.17.34.34,0,0,1,0-.29l.22-.52c0-.12-.05-.25-.08-.4s0-.29-.07-.44,0-.3,0-.44,0-.27,0-.38a.4.4,0,0,1,.19-.07.35.35,0,0,1,.24,0,.45.45,0,0,1,.21.16.6.6,0,0,1,.09.31L65,47h0l.18-.17.16-.17c.06,0,.11-.11.17-.17l.2-.2h.17a.69.69,0,0,1,.17.05.38.38,0,0,1,.2.17.27.27,0,0,1,0,.25l-.07.1A1.42,1.42,0,0,1,66,47l-.35.28-.61.44Z" transform="translate(-5.07 -3.88)"/><path class="cls-7" d="M66.84,54.64l-.15-.07-.17-.09-.18-.11-.15-.12a.32.32,0,0,1-.09-.37l.76-1.79A.15.15,0,0,1,67,52a.24.24,0,0,1,.15,0,1.08,1.08,0,0,1,.36.07l.41.14a1.5,1.5,0,0,1,.68.49.6.6,0,0,1,0,.62.45.45,0,0,1-.22.25.58.58,0,0,1-.35.07.65.65,0,0,1,.24.33.53.53,0,0,1,0,.41.67.67,0,0,1-.52.45A1.65,1.65,0,0,1,66.84,54.64Zm.38-1.58.28.11a.37.37,0,0,0,.26,0,.23.23,0,0,0,.15-.14.22.22,0,0,0,0-.21.53.53,0,0,0-.24-.17l-.13,0-.12,0Zm-.4.93a.74.74,0,0,0,.13.08l.16.08a.58.58,0,0,0,.28,0,.24.24,0,0,0,.19-.16.22.22,0,0,0,0-.21.52.52,0,0,0-.24-.16L67,53.52Z" transform="translate(-5.07 -3.88)"/><path class="cls-7" d="M57.94,48.4a.39.39,0,0,1,.1-.08.31.31,0,0,1,.13-.06.33.33,0,0,1,.15,0,.47.47,0,0,1,.16,0,.37.37,0,0,1,.18.14.71.71,0,0,1,.09.26l.11.58.71-.46h.1l.11,0A.47.47,0,0,1,60,49a.31.31,0,0,1,0,.25.36.36,0,0,1-.14.16,1.27,1.27,0,0,1-.24.14l-.59.32.24,1.16a.46.46,0,0,1-.22.17.5.5,0,0,1-.31,0,.33.33,0,0,1-.17-.13.71.71,0,0,1-.09-.26l-.1-.62-.79.52-.06,0,0,0a.53.53,0,0,1-.29-.22.32.32,0,0,1,0-.27.37.37,0,0,1,.13-.17,1.06,1.06,0,0,1,.22-.13l.62-.35Z" transform="translate(-5.07 -3.88)"/><path class="cls-7" d="M61.14,54.63a1,1,0,0,1,.23,0,1.47,1.47,0,0,1,.28.08,1,1,0,0,1,.31.2.35.35,0,0,1,.12.25c0,.16,0,.33,0,.53s0,.4-.07.61-.05.42-.07.63,0,.38-.07.54a.48.48,0,0,1-.18,0l-.23-.06-.15-.08a.22.22,0,0,1-.08-.09.49.49,0,0,1,0-.11.71.71,0,0,1,0-.14l0-.29-.69-.29-.16.21-.17.21h-.12l-.15,0a.56.56,0,0,1-.26-.19.24.24,0,0,1,0-.23l.06-.1a.53.53,0,0,0,.09-.11L60,56l.25-.29.27-.32.28-.3L61,54.8Zm.25.69-.27.31c-.1.11-.2.23-.29.35l.47.2c0-.16.05-.31.06-.45s0-.28,0-.4Z" transform="translate(-5.07 -3.88)"/><path class="cls-9" d="M12.38,51a62.72,62.72,0,0,1,5.81-10.25,8.73,8.73,0,0,1-1.73-4.91c-2.77,4.18-8,12.35-9.49,16A14.6,14.6,0,0,0,5.75,58.5,4.73,4.73,0,0,0,8,62.28a6.3,6.3,0,0,0,5,.39,10.31,10.31,0,0,0,3.57-1.91C12.64,60.41,9.35,58.21,12.38,51Z" transform="translate(-5.07 -3.88)"/><path class="cls-9" d="M25.56,24.87a7.29,7.29,0,0,0-3.26,2.55,8.6,8.6,0,0,1,6.11.2c.61-.71,1.11-1.28,1.49-1.7l-3-1.24A3.32,3.32,0,0,0,25.56,24.87Z" transform="translate(-5.07 -3.88)"/><path class="cls-9" d="M60.79,71.44a62.1,62.1,0,0,0,3.28-11.31,8.7,8.7,0,0,0,4.73-2.19c-1.06,4.91-3.23,14.39-4.86,18a14.55,14.55,0,0,1-3.87,5.48,4.72,4.72,0,0,1-4.26,1.06,6.36,6.36,0,0,1-3.76-3.29,10.48,10.48,0,0,1-1.11-3.9C53.89,77.81,57.76,78.62,60.79,71.44Z" transform="translate(-5.07 -3.88)"/><path class="cls-9" d="M70.32,43.75a7.34,7.34,0,0,1,.45,4.11,8.54,8.54,0,0,0-4.4-4.23c.08-.93.13-1.69.17-2.25l2.95,1.24A3.29,3.29,0,0,1,70.32,43.75Z" transform="translate(-5.07 -3.88)"/><path class="cls-5" d="M70.33,56.1h0l.21-.36v0a1.19,1.19,0,0,0,.08-.16l0,0,.09-.17,0,0,.06-.15,0,0a1.42,1.42,0,0,1,.08-.18h0l.07-.19,0-.08a1.17,1.17,0,0,0,0-.11l0-.1,0-.08a.65.65,0,0,0,0-.13l0,0a.88.88,0,0,1,.05-.15h0a8.45,8.45,0,0,0,.35-2.37v-.33A8.65,8.65,0,0,0,71.23,49c0-.25.08-.47.12-.68.68-4.27-1.07-5.92-1.5-6.25h0l-.06,0,0,0h0a.07.07,0,0,1,0-.1l.2-.47a.87.87,0,0,0-.46-1.13l-6.5-2.74a1.26,1.26,0,0,0-1.65.67l0,.12a.09.09,0,0,1-.1,0L48.72,33.59l-.8-.34L35.83,27.73a.07.07,0,0,1,0-.1l.05-.12a1.26,1.26,0,0,0-.67-1.65l-6.5-2.74a.87.87,0,0,0-1.13.46l-.2.47a.07.07,0,0,1-.1,0h0c-.11,0-2.77-.59-5.63,3.28l-.41.55a8.53,8.53,0,0,0-1.91,1.34l0,0-.09.09a.23.23,0,0,0-.07.07l-.05,0a8.55,8.55,0,0,0-1.44,1.91h0l-.08.14,0,.05-.06.11,0,.08a.93.93,0,0,0-.05.1l-.05.1a.2.2,0,0,1,0,.08,1.54,1.54,0,0,1-.08.19l-.07.18,0,.05-.06.16v0a1.46,1.46,0,0,0-.07.19v0a1.09,1.09,0,0,0-.05.17v0l-.12.4h0q-.13.59-.21,1.17C14,38.49,8,47.66,6.38,51.66a15.16,15.16,0,0,0-1.26,6.9,5.37,5.37,0,0,0,2.52,4.26,4,4,0,0,0,.65.33,7.27,7.27,0,0,0,4.83.14,12.25,12.25,0,0,0,6-4.33c1.45-1.83,3.92-2.54,7.34-2.1A38,38,0,0,1,37,60.27h0a37.78,37.78,0,0,1,9.77,5.13c2.7,2.14,3.91,4.41,3.61,6.73a12.18,12.18,0,0,0,1.12,7.33,6.9,6.9,0,0,0,4.15,3.6,5.35,5.35,0,0,0,4.81-1.17,15,15,0,0,0,4.07-5.72c1.77-3.91,4.15-14.61,5.11-19.12A9.33,9.33,0,0,0,70.33,56.1ZM71,51.35v.15a8,8,0,0,1-.33,2.33h0s0,.1-.05.14V54l0,.12,0,.07,0,.1a1,1,0,0,1,0,.1l0,.08a1.22,1.22,0,0,1-.07.17h0c0,.06,0,.12-.07.17l0,0-.06.13,0,0a1.3,1.3,0,0,1-.08.17h0L70,55.4v0l-.09.15h0A8,8,0,1,1,71,51.35ZM61.8,38.6l.05-.12a.61.61,0,0,1,.81-.33l6.5,2.74a.22.22,0,0,1,.12.29l-.2.47,0,.1-7.29-3.08ZM27.93,24.29l.2-.47a.22.22,0,0,1,.29-.11l6.5,2.74a.62.62,0,0,1,.33.81l0,.12,0,.08-7.29-3.08A.26.26,0,0,0,27.93,24.29Zm-10.13,8,0-.07,0-.1a.41.41,0,0,0,.05-.09L18,32l.06-.11,0-.05.07-.13h0a8.42,8.42,0,0,1,1.44-1.86l.09-.08,0,0a8,8,0,1,1-2.28,3.73h0a1.21,1.21,0,0,0,.05-.18v0l.06-.17h0l.06-.18,0,0s0-.09.05-.13l0-.05a.87.87,0,0,1,.07-.17A1.42,1.42,0,0,1,17.8,32.3ZM64,75.92a14.48,14.48,0,0,1-3.88,5.48,4.7,4.7,0,0,1-4.25,1.06,6.3,6.3,0,0,1-3.76-3.29,11.41,11.41,0,0,1-1.05-7c.34-2.56-1-5-3.85-7.31a38.59,38.59,0,0,0-9.92-5.22,38.24,38.24,0,0,0-10.67-3.46c-3.65-.47-6.32.32-7.92,2.34a11.36,11.36,0,0,1-5.71,4.1,6.3,6.3,0,0,1-5-.39A4.73,4.73,0,0,1,5.75,58.5,14.6,14.6,0,0,1,7,51.89c1.44-3.67,6.72-11.84,9.49-16a8.64,8.64,0,1,0,5.84-8.45,7.29,7.29,0,0,1,3.26-2.55,3.32,3.32,0,0,1,1.38-.19l8.63,3.63,12.09,5.52.82.35L60.88,39l.06,0h0l8.56,3.61a3.66,3.66,0,0,1,.82,1.14,7.19,7.19,0,0,1,.45,4.1,8.63,8.63,0,1,0-2,10.08C67.74,62.85,65.57,72.33,64,75.92Z" transform="translate(-5.07 -3.88)"/><ellipse class="cls-7" cx="43.92" cy="43.64" rx="0.77" ry="1.32" transform="translate(-18.44 63.27) rotate(-67.13)"/><path class="cls-9" d="M42.63,32.28a9.07,9.07,0,0,0,1.85,9.79l.15,0h0A2.69,2.69,0,0,1,46,43.34a10,10,0,0,0,1.59.85,9.26,9.26,0,0,0,3.76.73l-.56-.23a1.61,1.61,0,1,1,1.25-3l2.21.93a1.63,1.63,0,0,1,1,1.34,9,9,0,0,0,4.34-4.58,6.34,6.34,0,0,0,.3-.83L48.48,34.18l-.82-.35-4.74-2.16C42.81,31.87,42.72,32.07,42.63,32.28Z" transform="translate(-5.07 -3.88)"/><path class="cls-9" d="M56.4,61.88a6.76,6.76,0,0,1,2.3-2.82A8.65,8.65,0,0,1,55,48.21a9.31,9.31,0,0,1,.7-1.33,7.5,7.5,0,0,0-2.56,3.62,18.21,18.21,0,0,1-.84,2.43A6.14,6.14,0,1,1,43.83,56l0-.05c-1.36,1-1.57,3.3-2.86,2.72-1.62-.72-7.49-2.6-6.24-4.63a4.68,4.68,0,0,0,.78-2.33c-.07.23-.15.46-.24.68A6.14,6.14,0,0,1,23.6,51.13c-.48.7-1.05,1.46-1.71,2.27a10,10,0,0,0-2.2,4.14c1.62-1.25,3.93-1.69,6.88-1.31a38.24,38.24,0,0,1,10.67,3.46,38.59,38.59,0,0,1,9.92,5.22c2.27,1.8,3.55,3.7,3.84,5.67,0-1.31-.3-3,.77-3.7A10.35,10.35,0,0,0,56.4,61.88Z" transform="translate(-5.07 -3.88)"/><path class="cls-9" d="M42.46,48.26a3.07,3.07,0,0,0,3.67-4.65,2.81,2.81,0,0,1,0,2.13,2.76,2.76,0,0,1-3.61,1.47h0a2.76,2.76,0,0,1-1.64-3l0,.07A3.06,3.06,0,0,0,42.46,48.26Z" transform="translate(-5.07 -3.88)"/><path class="cls-2" d="M22.06,63.62A17.64,17.64,0,0,0,23,61.76c.12-.3.24-.61.35-.93v-.68a2,2,0,0,1,0-.24.32.32,0,0,1-.08-.21,15.56,15.56,0,0,0-2.12-8.32,8.7,8.7,0,0,0-1.81-2.13L19,49.8a23.27,23.27,0,0,1-2.8,3.8.32.32,0,0,1-.45,0,.33.33,0,0,1,0-.45,24.25,24.25,0,0,0,2.72-3.71c1.2-2,2.54-5,2.2-8a7.85,7.85,0,0,0-2-4.36L16.5,40.6a2.66,2.66,0,0,1-1.71,1.21,2.69,2.69,0,0,1-1.66-.14L13,41.61c-1.93,3.17-3.59,6.22-3.06,7.87a53.52,53.52,0,0,1,2,12.48c0,1.37.95,3,2.76,4.61a22.71,22.71,0,0,0,3.83,2.76C19.51,67.32,20.88,65.53,22.06,63.62Z" transform="translate(-5.07 -3.88)"/><path class="cls-4" d="M19,37.07a20,20,0,0,1-1.58,8.39c-1.89,4.48-4.31,5.44-3.9,8.33s.51,2.32,2.91-.9,4.2-.5,4.61,3.08-.26,5.59-1.24,7.15,1.4,1.87,2.79-.66S24,59.75,23.69,58s-1.1-5.28-2.46-7.05a7.81,7.81,0,0,0-2.06-2.12l1.1-2.35A14.47,14.47,0,0,0,21,42.75C21.12,40.88,20.72,38.19,19,37.07Z" transform="translate(-5.07 -3.88)"/><path class="cls-10" d="M17.36,35.45s1.16.52,1.1,1.16a17.08,17.08,0,0,1-2.4,4.11,1.9,1.9,0,0,1-1.64.71,5.52,5.52,0,0,1-1.73-.36c-.07,0,3.37-5.12,3.51-5.31s.3-.55.47-.6S17.36,35.45,17.36,35.45Z" transform="translate(-5.07 -3.88)"/><path class="cls-5" d="M20.82,70.53a24.88,24.88,0,0,1-6.14-4c-1.81-1.65-2.76-3.24-2.76-4.61a53.52,53.52,0,0,0-2-12.48c-.53-1.65,1.13-4.7,3.06-7.87l.12.06a2.69,2.69,0,0,0,1.66.14A2.66,2.66,0,0,0,16.5,40.6l2.19-3.5a7.85,7.85,0,0,1,2,4.36c.34,3-1,6-2.2,8a24.25,24.25,0,0,1-2.72,3.71.33.33,0,0,0,0,.45.32.32,0,0,0,.45,0A23.27,23.27,0,0,0,19,49.8l.32-.55a8.7,8.7,0,0,1,1.81,2.13,15.56,15.56,0,0,1,2.12,8.32.34.34,0,0,0,.19.3l.13,0a.32.32,0,0,0,.32-.32A16.16,16.16,0,0,0,21.66,51a9.06,9.06,0,0,0-2-2.33A19.39,19.39,0,0,0,20.8,45.9a11.09,11.09,0,0,0,.51-4.51,8.53,8.53,0,0,0-2.43-5l0,0a10.7,10.7,0,0,0-1.05-1l-.62-.48-.4-.27a.3.3,0,0,0-.26,0,.29.29,0,0,0-.2.16c-.78,1.53-1.85,3.26-2.88,4.93-2.48,4-4.82,7.78-4.11,10A52.52,52.52,0,0,1,11.29,62c0,1.55,1,3.3,3,5.08a25.71,25.71,0,0,0,6.3,4.07l.17.08c.12-.17.24-.34.36-.53ZM14,40c1-1.57,2-3.19,2.74-4.66a11.8,11.8,0,0,1,1.51,1.25L16,40.26a2,2,0,0,1-1.31.93,2.06,2.06,0,0,1-1.3-.12Z" transform="translate(-5.07 -3.88)"/><path class="cls-10" d="M58.29,36.42a3,3,0,0,0-1-.89,2,2,0,0,0-2.19.14,9.71,9.71,0,0,0-1,3.2,2.72,2.72,0,0,0,2.22,1,17.1,17.1,0,0,0,2-3.06h0A.37.37,0,0,0,58.29,36.42Z" transform="translate(-5.07 -3.88)"/><path class="cls-2" d="M49.63,28.51c-.28-.15-.57-.29-.86-.41a5.62,5.62,0,0,0-4.13-.38,1.88,1.88,0,0,0-1.1,1.37c-.49,2.07-.74,7.15.87,9.51a2.62,2.62,0,0,0,1.81,1.21,5.27,5.27,0,0,0,3.56-.44,2,2,0,0,0,.82-.81h0c1.28-2.78,1.76-5.08,1.44-6.82A4.46,4.46,0,0,0,49.63,28.51Zm.43,10.26,0,0c-.5.57-2.35,1.09-4.36.24l-.26-.12-.11,0,0-.12a13.79,13.79,0,0,1-.56-5.34,2.07,2.07,0,0,1,.85-1.25,3.81,3.81,0,0,1,2.9-.88,4.77,4.77,0,0,1,2.13.78,1.28,1.28,0,0,1,.53,1.14,24.48,24.48,0,0,1-1,5.5Z" transform="translate(-5.07 -3.88)"/><path class="cls-10" d="M50.19,32.59a4.11,4.11,0,0,0-1.85-.67,3.19,3.19,0,0,0-2.41.74,1.59,1.59,0,0,0-.61.78,14.15,14.15,0,0,0,.47,5,4,4,0,0,0,3.72,0,24.24,24.24,0,0,0,.94-5.26A.64.64,0,0,0,50.19,32.59Z" transform="translate(-5.07 -3.88)"/><path class="cls-2" d="M58.44,32.53a7.2,7.2,0,0,0-1.85-1.2,3.11,3.11,0,0,0-1.75-.28,1.4,1.4,0,0,0-1,.81c-.73,1.48-1.83,5.27-1,7.33a1.94,1.94,0,0,0,1.11,1.21c2.58,1,3.44-.1,3.48-.15h0a9.14,9.14,0,0,0,2.3-4.89A3.39,3.39,0,0,0,58.44,32.53Zm.42,4.52h0a17.38,17.38,0,0,1-2.11,3.26l0,0-.06,0A2.3,2.3,0,0,1,55,40.21a3.84,3.84,0,0,1-1.4-1l-.08-.09V39a9.65,9.65,0,0,1,1.07-3.6,1.67,1.67,0,0,1,.93-.62,2.77,2.77,0,0,1,2.17.22,3.43,3.43,0,0,1,1.18,1.1A1,1,0,0,1,58.86,37.05Z" transform="translate(-5.07 -3.88)"/><path class="cls-5" d="M58.86,32.06c-1-.92-2.72-1.91-4.14-1.64a2.06,2.06,0,0,0-1.49,1.16,11.24,11.24,0,0,0-.46,1.12,6.39,6.39,0,0,0-.11-1.09A5.14,5.14,0,0,0,49.94,28c-1.53-.83-3.91-1.55-5.56-.81A2.5,2.5,0,0,0,42.92,29a19.28,19.28,0,0,0-.37,4.76A10.71,10.71,0,0,0,43.89,39a3.37,3.37,0,0,0,1.48,1.27,3.21,3.21,0,0,0,.75.21c4,.59,5-1.45,5.06-1.63.26-.56.48-1.1.68-1.62a5.88,5.88,0,0,0,.31,2.23A2.59,2.59,0,0,0,53.59,41l.06,0c3,1.18,4.11-.22,4.22-.36a9.86,9.86,0,0,0,2.43-5.25A4,4,0,0,0,58.86,32.06ZM50.6,38.55h0a2,2,0,0,1-.82.81,5.27,5.27,0,0,1-3.56.44,2.62,2.62,0,0,1-1.81-1.21c-1.61-2.36-1.36-7.44-.87-9.51a1.88,1.88,0,0,1,1.1-1.37,5.62,5.62,0,0,1,4.13.38c.29.12.58.26.86.41A4.46,4.46,0,0,1,52,31.73C52.36,33.47,51.88,35.77,50.6,38.55Zm6.76,1.69h0s-.9,1.16-3.48.15a1.94,1.94,0,0,1-1.11-1.21c-.8-2.06.3-5.85,1-7.33a1.4,1.4,0,0,1,1-.81,3.11,3.11,0,0,1,1.75.28,7.2,7.2,0,0,1,1.85,1.2,3.39,3.39,0,0,1,1.22,2.82A9.14,9.14,0,0,1,57.36,40.24Z" transform="translate(-5.07 -3.88)"/><path class="cls-5" d="M50.56,32.07a4.77,4.77,0,0,0-2.13-.78,3.81,3.81,0,0,0-2.9.88,2.07,2.07,0,0,0-.85,1.25,13.79,13.79,0,0,0,.56,5.34l0,.12.11,0,.26.12c2,.85,3.86.33,4.36-.24l0,0,0-.06a24.48,24.48,0,0,0,1-5.5A1.28,1.28,0,0,0,50.56,32.07Zm-4.77,6.34a14.15,14.15,0,0,1-.47-5,1.59,1.59,0,0,1,.61-.78,3.19,3.19,0,0,1,2.41-.74,4.11,4.11,0,0,1,1.85.67.64.64,0,0,1,.26.57,24.24,24.24,0,0,1-.94,5.26A4,4,0,0,1,45.79,38.41Z" transform="translate(-5.07 -3.88)"/><path class="cls-5" d="M58.83,36.09A3.43,3.43,0,0,0,57.65,35a2.77,2.77,0,0,0-2.17-.22,1.67,1.67,0,0,0-.93.62A9.65,9.65,0,0,0,53.48,39v.12l.08.09a3.84,3.84,0,0,0,1.4,1,2.3,2.3,0,0,0,1.69.17l.06,0,0,0a17.38,17.38,0,0,0,2.11-3.26h0A1,1,0,0,0,58.83,36.09Zm-.53.67h0a17.1,17.1,0,0,1-2,3.06,2.72,2.72,0,0,1-2.22-1,9.71,9.71,0,0,1,1-3.2,2,2,0,0,1,2.19-.14,3,3,0,0,1,1,.89A.37.37,0,0,1,58.3,36.76Z" transform="translate(-5.07 -3.88)"/><path class="cls-4" d="M51.55,30.34a4.46,4.46,0,0,0-2.91-1.57,3.21,3.21,0,0,0-4,2.78c-.06,1.1,1.16-.68,2.39-.18a3.19,3.19,0,0,1,1.36-.08,4.77,4.77,0,0,1,2.13.78,1.28,1.28,0,0,1,.53,1.14,24.48,24.48,0,0,1-1,5.5l0,.06,0,0c-.5.57-2.35,1.09-4.36.24l-.26-.12-.11,0,0-.12a6,6,0,0,1-.19-.59,3.11,3.11,0,0,1-.62-1.26c-.39-1.28-.78-.21-.39,1a4.18,4.18,0,0,0,.37.66,2.62,2.62,0,0,0,1.81,1.21,5.27,5.27,0,0,0,3.56-.44,2,2,0,0,0,.82-.81h0c1.28-2.78,1.76-5.08,1.44-6.82A4.77,4.77,0,0,0,51.55,30.34Z" transform="translate(-5.07 -3.88)"/><path class="cls-4" d="M58.44,32.53a8.29,8.29,0,0,0-.92-.7c-.29,0-.5.16-.37.81.31,1.5,0,1.29.43,1.72s-.25.13-1-.13a2,2,0,0,0-2.23,1.24,27.36,27.36,0,0,0-1,2.84c-.06.43-.38.75-.63.64l.09.24a1.94,1.94,0,0,0,1.11,1.21c2.58,1,3.44-.1,3.48-.15h0a9.14,9.14,0,0,0,2.3-4.89A3.39,3.39,0,0,0,58.44,32.53Zm.42,4.52h0a17.38,17.38,0,0,1-2.11,3.26l0,0-.06,0A2.3,2.3,0,0,1,55,40.21a3.84,3.84,0,0,1-1.4-1l-.08-.09V39a9.65,9.65,0,0,1,1.07-3.6,1.67,1.67,0,0,1,.93-.62,2.77,2.77,0,0,1,2.17.22,3.43,3.43,0,0,1,1.18,1.1A1,1,0,0,1,58.86,37.05Z" transform="translate(-5.07 -3.88)"/><path class="cls-3" d="M19.24,68a13.49,13.49,0,0,1-3-1.27c-2.48-1.4.77-3.33,1.69-6.47s-1.64-3.91-2.67-2.94-1.52,2.79-2.1,1.2a22.58,22.58,0,0,1-1.06-4.79c-.3-2-1.26-5.19-.78-6.34s1.71-4.13,2.44-4.26a3.72,3.72,0,0,0,2.8-1.62c.89-1.19,1.39-2.61,1.22-2.89l-1.24,2a2.66,2.66,0,0,1-1.71,1.21,2.69,2.69,0,0,1-1.66-.14L13,41.61c-1.93,3.17-3.59,6.22-3.06,7.87a53.52,53.52,0,0,1,2,12.48c0,1.37.95,3,2.76,4.61a22.71,22.71,0,0,0,3.83,2.76C18.74,68.88,19,68.44,19.24,68Z" transform="translate(-5.07 -3.88)"/></g><g id="Layer_2" data-name="Layer 2"><text class="cls-11" transform="translate(71.76 45.56)">N<tspan class="cls-12" x="23.58" y="0">A</tspan><tspan class="cls-13" x="43.2" y="0">TURAL</tspan><tspan class="cls-14"><tspan x="0" y="29">GAMING</tspan></tspan></text></g></svg>